<?xml version="1.0" encoding="UTF-8"?>
<COLLADA xmlns="http://www.collada.org/2005/11/COLLADASchema" version="1.4.1">
    <asset>
        <contributor>
            <author>VCGLab</author>
            <authoring_tool>VCGLib | MeshLab</authoring_tool>
        </contributor>
        <created>N okt 8 11:01:22 2026 GMT</created>
        <modified>N okt 8 11:01:22 2026 GMT</modified>
        <up_axis>Y_UP</up_axis>
    </asset>
    <library_geometries>
        <geometry id="shape0-lib" name="shape0">
            <mesh>
                <source id="shape0-lib-positions" name="position">
                    <float_array id="shape0-lib-positions-array" count="132">-0.125 -0.045 1.9 -0.125 -0.045 1.945 -0.125 0.045 1.945 -0.125 0.045 1.9 0.36 0.045 1.945 0.36 0.045 1.9 0.36 -0.045 1.945 0.36 -0.045 1.9 -0.45 -0.45 0 -0.45 -0.45 0.9 -0.45 0.45 0.9 -0.45 0.45 0 0.45 0.45 0.9 0.45 0.45 0 0.45 -0.45 0.9 0.45 -0.45 0 -0.215 -0.45 0.9 -0.215 -0.45 1.9 -0.215 -0.405 1.9 -0.215 -0.405 0.9 -0.125 -0.405 1.9 -0.125 -0.405 0.9 -0.125 -0.45 1.9 -0.125 -0.45 0.9 -0.215 0.405 0.9 -0.215 0.405 1.9 -0.215 0.45 1.9 -0.215 0.45 0.9 -0.125 0.45 1.9 -0.125 0.45 0.9 -0.125 0.405 1.9 -0.125 0.405 0.9 -0.215 -0.45 1.9 -0.215 -0.45 1.945 -0.215 0.45 1.945 -0.215 0.45 1.9 -0.125 0.45 1.945 -0.125 0.45 1.9 -0.125 -0.45 1.945 -0.125 -0.45 1.9 -0.137389 -0.45 1.0475 -0.137389 -0.45 1.0925 -0.137389 -0.405 1.0925 -0.137389 -0.405 1.0475</float_array>
                    <technique_common>
                        <accessor count="44" source="#shape0-lib-positions-array" stride="3">
                            <param name="X" type="float"/>
                            <param name="Y" type="float"/>
                            <param name="Z" type="float"/>
                        </accessor>
                    </technique_common>
                </source>
                <source id="shape0-lib-normals" name="normal">
                    <float_array id="shape0-lib-normals-array" count="186">-1 0 0 -1 0 0 0 1 0 0 1 0 1 0 0 1 0 0 0 -1 0 0 -1 0 0 0 -1 0 0 -1 0 0 1 0 0 1 -1 0 0 -1 0 0 0 1 0 0 1 0 1 0 0 1 0 0 0 -1 0 0 -1 0 0 0 -1 0 0 -1 0 0 1 0 0 1 -1 0 0 -1 0 0 0 1 0 0 1 0 1 0 0 1 0 0 0 -1 0 0 -1 0 0 0 -1 0 0 -1 0 0 1 0 0 1 -1 0 0 -1 0 0 0 1 0 0 1 0 1 0 0 1 0 0 0 -1 0 0 -1 0 0 0 -1 0 0 -1 0 0 1 0 0 1 -1 0 0 -1 0 0 0 1 0 0 1 0 1 0 0 1 0 0 0 -1 0 0 -1 0 0 0 -1 0 0 -1 0 0 1 0 0 1 -1 0 0 -1 0 0</float_array>
                    <technique_common>
                        <accessor count="62" source="#shape0-lib-normals-array" stride="3">
                            <param name="X" type="float"/>
                            <param name="Y" type="float"/>
                            <param name="Z" type="float"/>
                        </accessor>
                    </technique_common>
                </source>
                <vertices id="shape0-lib-vertices">
                    <input semantic="POSITION" source="#shape0-lib-positions"/>
                </vertices>
                <triangles count="62">
                    <input offset="0" semantic="VERTEX" source="#shape0-lib-vertices"/>
                    <input offset="1" semantic="NORMAL" source="#shape0-lib-normals"/>
                    <p>0 0 1 0 2 0 0 1 2 1 3 1 3 2 2 2 4 2 3 3 4 3 5 3 5 4 4 4 6 4 5 5 6 5 7 5 7 6 6 6 1 6 7 7 1 7 0 7 3 8 5 8 7 8 3 9 7 9 0 9 4 10 2 10 1 10 4 11 1 11 6 11 8 12 9 12 10 12 8 13 10 13 11 13 11 14 10 14 12 14 11 15 12 15 13 15 13 16 12 16 14 16 13 17 14 17 15 17 15 18 14 18 9 18 15 19 9 19 8 19 11 20 13 20 15 20 11 21 15 21 8 21 12 22 10 22 9 22 12 23 9 23 14 23 16 24 17 24 18 24 16 25 18 25 19 25 19 26 18 26 20 26 19 27 20 27 21 27 21 28 20 28 22 28 21 29 22 29 23 29 23 30 22 30 17 30 23 31 17 31 16 31 19 32 21 32 23 32 19 33 23 33 16 33 20 34 18 34 17 34 20 35 17 35 22 35 24 36 25 36 26 36 24 37 26 37 27 37 27 38 26 38 28 38 27 39 28 39 29 39 29 40 28 40 30 40 29 41 30 41 31 41 31 42 30 42 25 42 31 43 25 43 24 43 27 44 29 44 31 44 27 45 31 45 24 45 28 46 26 46 25 46 28 47 25 47 30 47 32 48 33 48 34 48 32 49 34 49 35 49 35 50 34 50 36 50 35 51 36 51 37 51 37 52 36 52 38 52 37 53 38 53 39 53 39 54 38 54 33 54 39 55 33 55 32 55 35 56 37 56 39 56 35 57 39 57 32 57 36 58 34 58 33 58 36 59 33 59 38 59 40 60 41 60 42 60 40 61 42 61 43 61</p>
                </triangles>
            </mesh>
        </geometry>
    </library_geometries>
    <library_visual_scenes>
        <visual_scene id="VisualSceneNode" name="VisualScene">
            <node id="node" name="node">
                <instance_geometry url="#shape0-lib"/>
            </node>
        </visual_scene>
    </library_visual_scenes>
    <scene>
        <instance_visual_scene url="#VisualSceneNode"/>
    </scene>
</COLLADA>
