<?xml version="1.0" encoding="UTF-8"?>
<COLLADA xmlns="http://www.collada.org/2005/11/COLLADASchema" version="1.4.1">
    <asset>
        <contributor>
            <author>VCGLab</author>
            <authoring_tool>VCGLib | MeshLab</authoring_tool>
        </contributor>
        <created>K sept 30 11:52:20 2026 GMT</created>
        <modified>K sept 30 11:52:20 2026 GMT</modified>
        <up_axis>Y_UP</up_axis>
    </asset>
    <library_geometries>
        <geometry id="shape0-lib" name="shape0">
            <mesh>
                <source id="shape0-lib-positions" name="position">
                    <float_array id="shape0-lib-positions-array" count="1398">-0.020303 -0.173175 0.2 -0.020303 -0.173175 0.21 -0.020303 -0.0331745 0.21 -0.020303 -0.0331745 0.2 -0.00030303 -0.0331745 0.21 -0.00030303 -0.0331745 0.2 -0.00030303 -0.173175 0.21 -0.00030303 -0.173175 0.2 -0.0137358 -0.0424917 0.2 -0.013803 -0.0431745 0.2 -0.00680303 -0.0431745 0.2 -0.00687028 -0.0424917 0.2 -0.00706945 -0.0418351 0.2 -0.0135366 -0.0418351 0.2 -0.0132132 -0.04123 0.2 -0.00739289 -0.04123 0.2 -0.00782816 -0.0406996 0.2 -0.0127779 -0.0406996 0.2 -0.0122475 -0.0402644 0.2 -0.00835854 -0.0402644 0.2 -0.00896364 -0.0399409 0.2 -0.0116424 -0.0399409 0.2 -0.00962021 -0.0397418 0.2 -0.010303 -0.0396745 0.2 -0.0109858 -0.0397418 0.2 -0.0137358 -0.162492 0.2 -0.013803 -0.163175 0.2 -0.0137358 -0.0438573 0.2 -0.0135366 -0.161835 0.2 -0.0132132 -0.16123 0.2 -0.0135366 -0.0445139 0.2 -0.0132132 -0.045119 0.2 -0.0127779 -0.0456494 0.2 -0.0127779 -0.1607 0.2 -0.0122475 -0.0460847 0.2 -0.0122475 -0.160264 0.2 -0.0116424 -0.0464081 0.2 -0.0116424 -0.159941 0.2 -0.0109858 -0.0466073 0.2 -0.0109858 -0.159742 0.2 -0.010303 -0.0466745 0.2 -0.010303 -0.159675 0.2 -0.00962021 -0.0466073 0.2 -0.00962021 -0.159742 0.2 -0.00896364 -0.0464081 0.2 -0.00896364 -0.159941 0.2 -0.00835854 -0.0460847 0.2 -0.00835854 -0.160264 0.2 -0.00782816 -0.0456494 0.2 -0.00782816 -0.1607 0.2 -0.00739289 -0.045119 0.2 -0.00739289 -0.16123 0.2 -0.00706945 -0.0445139 0.2 -0.00706945 -0.161835 0.2 -0.00687028 -0.0438573 0.2 -0.00680303 -0.163175 0.2 -0.00687028 -0.162492 0.2 -0.00687028 -0.163857 0.2 -0.0137358 -0.163857 0.2 -0.0135366 -0.164514 0.2 -0.00706945 -0.164514 0.2 -0.00739289 -0.165119 0.2 -0.0132132 -0.165119 0.2 -0.0127779 -0.165649 0.2 -0.00782816 -0.165649 0.2 -0.00835854 -0.166085 0.2 -0.0122475 -0.166085 0.2 -0.0116424 -0.166408 0.2 -0.00896364 -0.166408 0.2 -0.0109858 -0.166607 0.2 -0.010303 -0.166675 0.2 -0.00962021 -0.166607 0.2 -0.0137358 -0.163857 0.21 -0.013803 -0.163175 0.21 -0.00680303 -0.163175 0.21 -0.00687028 -0.163857 0.21 -0.00706945 -0.164514 0.21 -0.0135366 -0.164514 0.21 -0.0132132 -0.165119 0.21 -0.00739289 -0.165119 0.21 -0.00782816 -0.165649 0.21 -0.0127779 -0.165649 0.21 -0.0122475 -0.166085 0.21 -0.00835854 -0.166085 0.21 -0.00896364 -0.166408 0.21 -0.0116424 -0.166408 0.21 -0.00962021 -0.166607 0.21 -0.010303 -0.166675 0.21 -0.0109858 -0.166607 0.21 -0.0137358 -0.0438573 0.21 -0.013803 -0.0431745 0.21 -0.0137358 -0.162492 0.21 -0.0135366 -0.0445139 0.21 -0.0132132 -0.045119 0.21 -0.0135366 -0.161835 0.21 -0.0132132 -0.16123 0.21 -0.0127779 -0.1607 0.21 -0.0127779 -0.0456494 0.21 -0.0122475 -0.160264 0.21 -0.0122475 -0.0460847 0.21 -0.0116424 -0.159941 0.21 -0.0116424 -0.0464081 0.21 -0.0109858 -0.159742 0.21 -0.0109858 -0.0466073 0.21 -0.010303 -0.159675 0.21 -0.010303 -0.0466745 0.21 -0.00962021 -0.159742 0.21 -0.00962021 -0.0466073 0.21 -0.00896364 -0.159941 0.21 -0.00896364 -0.0464081 0.21 -0.00835854 -0.160264 0.21 -0.00835854 -0.0460847 0.21 -0.00782816 -0.1607 0.21 -0.00782816 -0.0456494 0.21 -0.00739289 -0.16123 0.21 -0.00739289 -0.045119 0.21 -0.00706945 -0.161835 0.21 -0.00706945 -0.0445139 0.21 -0.00687028 -0.162492 0.21 -0.00680303 -0.0431745 0.21 -0.00687028 -0.0438573 0.21 -0.00687028 -0.0424917 0.21 -0.0137358 -0.0424917 0.21 -0.0135366 -0.0418351 0.21 -0.00706945 -0.0418351 0.21 -0.00739289 -0.04123 0.21 -0.0132132 -0.04123 0.21 -0.0127779 -0.0406996 0.21 -0.00782816 -0.0406996 0.21 -0.00835854 -0.0402644 0.21 -0.0122475 -0.0402644 0.21 -0.0116424 -0.0399409 0.21 -0.00896364 -0.0399409 0.21 -0.0109858 -0.0397418 0.21 -0.010303 -0.0396745 0.21 -0.00962021 -0.0397418 0.21 -0.020303 -0.153175 0.21999 -0.020303 -0.153175 0.205 -0.00030303 -0.153175 0.205 -0.00030303 -0.153175 0.21999 -0.020303 -0.138185 0.21999 -0.020303 -0.0531745 0.205 -0.020303 -0.0531745 0.21999 -0.00030303 -0.0531745 0.205 -0.00030303 -0.0693529 0.21999 -0.00030303 -0.0531745 0.21999 -0.000303029 -0.153175 0.243131 -0.020303 -0.153175 0.243131 -0.020303 -0.0531745 0.243131 -0.000303029 -0.0531745 0.243131 -0.00528024 -0.0743301 0.243131 -0.020303 -0.138185 0.243131 -0.000303029 -0.0693529 0.243131 -0.0148467 -0.129675 0.275 -0.0148467 -0.139722 0.275 -0.00575936 -0.139722 0.275 -0.00575936 -0.129675 0.275 -0.0170297 -0.142342 0.325 -0.00357631 -0.142342 0.325 -0.0170297 -0.129675 0.325 -0.020303 -0.129675 0.275 -0.020303 -0.129675 0.325 -0.00357631 -0.129675 0.325 -0.00030303 -0.129675 0.325 -0.00030303 -0.129675 0.3015 -0.00030303 -0.129675 0.275 -0.00030303 -0.153175 0.325 -0.020303 -0.153175 0.325 -0.00030303 -0.153175 0.24 -0.00030303 -0.0693529 0.24 -0.00030303 -0.0531745 0.24 -0.00030303 -0.0531745 0.325 -0.00030303 -0.0766745 0.3015 -0.00030303 -0.0766745 0.275 -0.00030303 -0.129165 0.26983 -0.00030303 -0.127657 0.264859 -0.00030303 -0.0771837 0.26983 -0.00030303 -0.125208 0.260277 -0.00030303 -0.121913 0.256262 -0.00030303 -0.0786917 0.264859 -0.00030303 -0.0811406 0.260277 -0.00030303 -0.117897 0.252966 -0.00030303 -0.113316 0.250517 -0.00030303 -0.0844362 0.256262 -0.00030303 -0.0884519 0.252966 -0.00030303 -0.108344 0.249009 -0.00030303 -0.103175 0.2485 -0.00030303 -0.0930334 0.250517 -0.00030303 -0.0980046 0.249009 -0.020303 -0.153175 0.24 -0.020303 -0.121913 0.256262 -0.020303 -0.138175 0.24 -0.020303 -0.125208 0.260277 -0.020303 -0.129165 0.26983 -0.020303 -0.127657 0.264859 -0.020303 -0.117897 0.252966 -0.020303 -0.113316 0.250517 -0.020303 -0.0766745 0.3015 -0.020303 -0.0531745 0.325 -0.020303 -0.0531745 0.24 -0.020303 -0.0766745 0.275 -0.020303 -0.108344 0.249009 -0.020303 -0.103175 0.2485 -0.020303 -0.0771837 0.26983 -0.020303 -0.0980046 0.249009 -0.020303 -0.0786917 0.264859 -0.020303 -0.0811406 0.260277 -0.020303 -0.0930334 0.250517 -0.020303 -0.0884519 0.252966 -0.020303 -0.0844362 0.256262 -0.0148467 -0.0766745 0.275 -0.0170297 -0.0766745 0.325 -0.020303 -0.0766745 0.325 -0.00030303 -0.0766745 0.325 -0.00357631 -0.0766745 0.325 -0.00575936 -0.0766745 0.275 -0.00357631 -0.0640067 0.325 -0.0170297 -0.0640067 0.325 -0.005281 -0.0743309 0.24 -0.0148467 -0.0666271 0.275 -0.00575936 -0.0666271 0.275 -0.0225 -0.0225 0 -0.0225 -0.0225 0.2 -0.0225 0.0225 0.2 -0.0225 0.0225 0 0.0225 0.0225 0.2 0.0225 0.0225 0 0.0225 -0.0225 0.2 0.0225 -0.0225 0 -0.0225 -0.4775 0.155 -0.0225 -0.4775 0.2 -0.0225 0.0225 0.2 -0.0225 0.0225 0.155 0.0225 0.0225 0.2 0.0225 0.0225 0.155 0.0225 -0.4775 0.2 0.0225 -0.4775 0.155 -0.0225 -0.4775 0 -0.0225 -0.4775 0.2 -0.0225 -0.4325 0.2 -0.0225 -0.4325 0 0.0225 -0.4325 0.2 0.0225 -0.4325 0 0.0225 -0.4775 0.2 0.0225 -0.4775 0 -0.020303 -0.423175 0.2 -0.020303 -0.423175 0.21 -0.020303 -0.283175 0.21 -0.020303 -0.283175 0.2 -0.00030303 -0.283175 0.21 -0.00030303 -0.283175 0.2 -0.00030303 -0.423175 0.21 -0.00030303 -0.423175 0.2 -0.0137358 -0.292492 0.2 -0.013803 -0.293175 0.2 -0.00680303 -0.293175 0.2 -0.00687028 -0.292492 0.2 -0.00706945 -0.291835 0.2 -0.0135366 -0.291835 0.2 -0.0132132 -0.29123 0.2 -0.00739289 -0.29123 0.2 -0.00782816 -0.2907 0.2 -0.0127779 -0.2907 0.2 -0.0122475 -0.290264 0.2 -0.00835854 -0.290264 0.2 -0.00896364 -0.289941 0.2 -0.0116424 -0.289941 0.2 -0.00962021 -0.289742 0.2 -0.010303 -0.289675 0.2 -0.0109858 -0.289742 0.2 -0.0137358 -0.412492 0.2 -0.013803 -0.413175 0.2 -0.0137358 -0.293857 0.2 -0.0135366 -0.411835 0.2 -0.0132132 -0.41123 0.2 -0.0135366 -0.294514 0.2 -0.0132132 -0.295119 0.2 -0.0127779 -0.295649 0.2 -0.0127779 -0.4107 0.2 -0.0122475 -0.296085 0.2 -0.0122475 -0.410264 0.2 -0.0116424 -0.296408 0.2 -0.0116424 -0.409941 0.2 -0.0109858 -0.296607 0.2 -0.0109858 -0.409742 0.2 -0.010303 -0.296675 0.2 -0.010303 -0.409675 0.2 -0.00962021 -0.296607 0.2 -0.00962021 -0.409742 0.2 -0.00896364 -0.296408 0.2 -0.00896364 -0.409941 0.2 -0.00835854 -0.296085 0.2 -0.00835854 -0.410264 0.2 -0.00782816 -0.295649 0.2 -0.00782816 -0.4107 0.2 -0.00739289 -0.295119 0.2 -0.00739289 -0.41123 0.2 -0.00706945 -0.294514 0.2 -0.00706945 -0.411835 0.2 -0.00687028 -0.293857 0.2 -0.00680303 -0.413175 0.2 -0.00687028 -0.412492 0.2 -0.00687028 -0.413857 0.2 -0.0137358 -0.413857 0.2 -0.0135366 -0.414514 0.2 -0.00706945 -0.414514 0.2 -0.00739289 -0.415119 0.2 -0.0132132 -0.415119 0.2 -0.0127779 -0.415649 0.2 -0.00782816 -0.415649 0.2 -0.00835854 -0.416085 0.2 -0.0122475 -0.416085 0.2 -0.0116424 -0.416408 0.2 -0.00896364 -0.416408 0.2 -0.0109858 -0.416607 0.2 -0.010303 -0.416675 0.2 -0.00962021 -0.416607 0.2 -0.0137358 -0.413857 0.21 -0.013803 -0.413175 0.21 -0.00680303 -0.413175 0.21 -0.00687028 -0.413857 0.21 -0.00706945 -0.414514 0.21 -0.0135366 -0.414514 0.21 -0.0132132 -0.415119 0.21 -0.00739289 -0.415119 0.21 -0.00782816 -0.415649 0.21 -0.0127779 -0.415649 0.21 -0.0122475 -0.416085 0.21 -0.00835854 -0.416085 0.21 -0.00896364 -0.416408 0.21 -0.0116424 -0.416408 0.21 -0.00962021 -0.416607 0.21 -0.010303 -0.416675 0.21 -0.0109858 -0.416607 0.21 -0.0137358 -0.293857 0.21 -0.013803 -0.293175 0.21 -0.0137358 -0.412492 0.21 -0.0135366 -0.294514 0.21 -0.0132132 -0.295119 0.21 -0.0135366 -0.411835 0.21 -0.0132132 -0.41123 0.21 -0.0127779 -0.4107 0.21 -0.0127779 -0.295649 0.21 -0.0122475 -0.410264 0.21 -0.0122475 -0.296085 0.21 -0.0116424 -0.409941 0.21 -0.0116424 -0.296408 0.21 -0.0109858 -0.409742 0.21 -0.0109858 -0.296607 0.21 -0.010303 -0.409675 0.21 -0.010303 -0.296675 0.21 -0.00962021 -0.409742 0.21 -0.00962021 -0.296607 0.21 -0.00896364 -0.409941 0.21 -0.00896364 -0.296408 0.21 -0.00835854 -0.410264 0.21 -0.00835854 -0.296085 0.21 -0.00782816 -0.4107 0.21 -0.00782816 -0.295649 0.21 -0.00739289 -0.41123 0.21 -0.00739289 -0.295119 0.21 -0.00706945 -0.411835 0.21 -0.00706945 -0.294514 0.21 -0.00687028 -0.412492 0.21 -0.00680303 -0.293175 0.21 -0.00687028 -0.293857 0.21 -0.00687028 -0.292492 0.21 -0.0137358 -0.292492 0.21 -0.0135366 -0.291835 0.21 -0.00706945 -0.291835 0.21 -0.00739289 -0.29123 0.21 -0.0132132 -0.29123 0.21 -0.0127779 -0.2907 0.21 -0.00782816 -0.2907 0.21 -0.00835854 -0.290264 0.21 -0.0122475 -0.290264 0.21 -0.0116424 -0.289941 0.21 -0.00896364 -0.289941 0.21 -0.0109858 -0.289742 0.21 -0.010303 -0.289675 0.21 -0.00962021 -0.289742 0.21 -0.020303 -0.403175 0.21999 -0.020303 -0.403175 0.205 -0.00030303 -0.403175 0.205 -0.00030303 -0.403175 0.21999 -0.020303 -0.388185 0.21999 -0.020303 -0.303175 0.205 -0.020303 -0.303175 0.21999 -0.00030303 -0.303175 0.205 -0.00030303 -0.319353 0.21999 -0.00030303 -0.303175 0.21999 -0.000303029 -0.403175 0.243131 -0.020303 -0.403175 0.243131 -0.020303 -0.303175 0.243131 -0.000303029 -0.303175 0.243131 -0.00528024 -0.32433 0.243131 -0.020303 -0.388185 0.243131 -0.000303029 -0.319353 0.243131 -0.0148467 -0.379675 0.275 -0.0148467 -0.389722 0.275 -0.00575936 -0.389722 0.275 -0.00575936 -0.379675 0.275 -0.0170297 -0.392342 0.325 -0.00357631 -0.392342 0.325 -0.0170297 -0.379675 0.325 -0.020303 -0.379675 0.275 -0.020303 -0.379675 0.325 -0.00357631 -0.379675 0.325 -0.00030303 -0.379675 0.325 -0.00030303 -0.379675 0.3015 -0.00030303 -0.379675 0.275 -0.00030303 -0.403175 0.325 -0.020303 -0.403175 0.325 -0.00030303 -0.319353 0.24 -0.00030303 -0.303175 0.24 -0.00030303 -0.303175 0.325 -0.00030303 -0.326675 0.3015 -0.00030303 -0.403175 0.24 -0.00030303 -0.379165 0.26983 -0.00030303 -0.377657 0.264859 -0.00030303 -0.375208 0.260277 -0.00030303 -0.371913 0.256262 -0.00030303 -0.367897 0.252966 -0.00030303 -0.363316 0.250517 -0.00030303 -0.358344 0.249009 -0.00030303 -0.353175 0.2485 -0.00030303 -0.348005 0.249009 -0.00030303 -0.343033 0.250517 -0.00030303 -0.338452 0.252966 -0.00030303 -0.334436 0.256262 -0.00030303 -0.331141 0.260277 -0.00030303 -0.328692 0.264859 -0.00030303 -0.327184 0.26983 -0.00030303 -0.326675 0.275 -0.020303 -0.403175 0.24 -0.020303 -0.388175 0.24 -0.020303 -0.375208 0.260277 -0.020303 -0.371913 0.256262 -0.020303 -0.377657 0.264859 -0.020303 -0.379165 0.26983 -0.020303 -0.367897 0.252966 -0.020303 -0.363316 0.250517 -0.020303 -0.326675 0.3015 -0.020303 -0.303175 0.325 -0.020303 -0.303175 0.24 -0.020303 -0.358344 0.249009 -0.020303 -0.353175 0.2485 -0.020303 -0.348005 0.249009 -0.020303 -0.343033 0.250517 -0.020303 -0.338452 0.252966 -0.020303 -0.334436 0.256262 -0.020303 -0.331141 0.260277 -0.020303 -0.328692 0.264859 -0.020303 -0.327184 0.26983 -0.020303 -0.326675 0.275 -0.0148467 -0.326675 0.275 -0.0170297 -0.326675 0.325 -0.020303 -0.326675 0.325 -0.00030303 -0.326675 0.325 -0.00357631 -0.326675 0.325 -0.00575936 -0.326675 0.275 -0.00357631 -0.314007 0.325 -0.0170297 -0.314007 0.325 -0.005281 -0.324331 0.24 -0.0148467 -0.316627 0.275 -0.00575936 -0.316627 0.275</float_array>
                    <technique_common>
                        <accessor count="466" source="#shape0-lib-positions-array" stride="3">
                            <param name="X" type="float"/>
                            <param name="Y" type="float"/>
                            <param name="Z" type="float"/>
                        </accessor>
                    </technique_common>
                </source>
                <source id="shape0-lib-normals" name="normal">
                    <float_array id="shape0-lib-normals-array" count="2736">-1 0 0 -1 0 0 0 1 0 0 1 0 1 0 0 1 0 0 0 -1 0 0 -1 0 0 0 -1 0 0 -1 0 0 -1 0 0 -1 0 0 -1 0 0 -1 0 0 -1 0 0 -1 0 0 -1 0 0 -1 0 0 -1 0 0 -1 0 0 -1 0 0 -1 0 0 -1 0 0 -1 0 0 -1 0 0 -1 0 0 -1 0 0 -1 0 0 -1 0 0 -1 0 0 -1 0 0 -1 0 0 -1 0 0 -1 0 0 -1 0 0 -1 0 0 -1 0 0 -1 0 0 -1 0 0 -1 0 0 -1 0 0 -1 0 0 -1 0 0 -1 0 0 -1 0 0 -1 0 0 -1 0 0 -1 0 0 -1 0 0 -1 0 0 -1 0 0 -1 0 0 -1 0 0 -1 0 0 -1 0 0 -1 0 0 -1 0 0 -1 0 0 -1 0 0 -1 0 0 -1 0 0 -1 0 0 -1 0 0 -1 0 0 -1 0 0 -1 0 0 -1 0 0 -1 0 0 -1 0 0 -1 0 0 -1 0 0 -1 0 0 -1 0 0 -1 0 0 -1 0 0 -1 0 0 -1 0 0 -1 0 0 1 0 0 1 0 0 1 0 0 1 0 0 1 0 0 1 0 0 1 0 0 1 0 0 1 0 0 1 0 0 1 0 0 1 0 0 1 0 0 1 0 0 1 0 0 1 0 0 1 0 0 1 0 0 1 0 0 1 0 0 1 0 0 1 0 0 1 0 0 1 0 0 1 0 0 1 0 0 1 0 0 1 0 0 1 0 0 1 0 0 1 0 0 1 0 0 1 0 0 1 0 0 1 0 0 1 0 0 1 0 0 1 0 0 1 0 0 1 0 0 1 0 0 1 0 0 1 0 0 1 0 0 1 0 0 1 0 0 1 0 0 1 0 0 1 0 0 1 0 0 1 0 0 1 0 0 1 0 0 1 0 0 1 0 0 1 0 0 1 0 0 1 0 0 1 0 0 1 0 0 1 0 0 1 0 0 1 0 0 1 0 0 1 0 0 1 0 0 1 0 0 1 0 0 1 0 0 1 -0.0980188 -0.995185 0 -0.0980188 -0.995185 0 -0.290283 -0.956941 0 -0.290283 -0.956941 0 -0.471395 -0.881922 0 -0.471395 -0.881922 0 -0.634394 -0.77301 0 -0.634394 -0.77301 0 -0.77301 -0.634394 0 -0.77301 -0.634394 0 -0.881922 -0.471396 0 -0.881922 -0.471396 0 -0.95694 -0.290286 0 -0.95694 -0.290286 0 -0.995185 -0.0980163 0 -0.995185 -0.0980163 0 -0.995185 0.0980168 0 -0.995185 0.0980168 0 -0.95694 0.290285 0 -0.95694 0.290285 0 -0.881921 0.471398 0 -0.881921 0.471398 0 -0.773012 0.634391 0 -0.773012 0.634391 0 -0.63439 0.773013 0 -0.63439 0.773013 0 -0.4714 0.88192 0 -0.4714 0.88192 0 -0.290283 0.956941 0 -0.290283 0.956941 0 -0.0980188 0.995185 0 -0.0980188 0.995185 0 0.0980187 0.995185 0 0.0980187 0.995185 0 0.290283 0.956941 0 0.290283 0.956941 0 0.471399 0.88192 0 0.471399 0.88192 0 0.634391 0.773012 0 0.634391 0.773012 0 0.773012 0.634392 0 0.773012 0.634392 0 0.881922 0.471396 0 0.881922 0.471396 0 0.95694 0.290286 0 0.95694 0.290286 0 0.995185 0.0980175 0 0.995185 0.0980175 0 0.995185 -0.098017 0 0.995185 -0.098017 0 0.95694 -0.290287 0 0.95694 -0.290287 0 0.881923 -0.471394 0 0.881923 -0.471394 0 0.77301 -0.634394 0 0.77301 -0.634394 0 0.634394 -0.77301 0 0.634394 -0.77301 0 0.471395 -0.881922 0 0.471395 -0.881922 0 0.290283 -0.956941 0 0.290283 -0.956941 0 0.0980187 -0.995185 0 0.0980187 -0.995185 0 -0.098035 -0.995183 0 -0.098035 -0.995183 0 -0.290283 -0.956941 0 -0.290283 -0.956941 0 -0.471408 -0.881915 0 -0.471408 -0.881915 0 -0.634374 -0.773026 0 -0.634374 -0.773026 0 -0.773019 -0.634383 0 -0.773019 -0.634383 0 -0.881922 -0.471396 0 -0.881922 -0.471396 0 -0.95694 -0.290285 0 -0.95694 -0.290285 0 -0.995185 -0.0980168 0 -0.995185 -0.0980168 0 -0.995185 0.0980168 0 -0.995185 0.0980168 0 -0.95694 0.290285 0 -0.95694 0.290285 0 -0.881922 0.471396 0 -0.881922 0.471396 0 -0.773001 0.634405 0 -0.773001 0.634405 0 -0.634413 0.772994 0 -0.634413 0.772994 0 -0.471374 0.881933 0 -0.471374 0.881933 0 -0.290303 0.956935 0 -0.290303 0.956935 0 -0.0979919 0.995187 0 -0.0979919 0.995187 0 0.0979918 0.995187 0 0.0979918 0.995187 0 0.290303 0.956935 0 0.290303 0.956935 0 0.471374 0.881934 0 0.471374 0.881934 0 0.634414 0.772994 0 0.634414 0.772994 0 0.773001 0.634405 0 0.773001 0.634405 0 0.881923 0.471394 0 0.881923 0.471394 0 0.95694 0.290286 0 0.95694 0.290286 0 0.995185 0.0980175 0 0.995185 0.0980175 0 0.995185 -0.0980175 0 0.995185 -0.0980175 0 0.95694 -0.290286 0 0.95694 -0.290286 0 0.881923 -0.471394 0 0.881923 -0.471394 0 0.773018 -0.634384 0 0.773018 -0.634384 0 0.634375 -0.773026 0 0.634375 -0.773026 0 0.471408 -0.881916 0 0.471408 -0.881916 0 0.290283 -0.956941 0 0.290283 -0.956941 0 0.0980348 -0.995183 0 0.0980348 -0.995183 0 0 -1 0 0 -1 0 -1 0 0 -1 0 0 -1 0 0 0 0 -1 0 0 -1 1 0 0 1 0 0 1 0 0 0 1 0 0 1 0 0 -1 0 0 -1 0 0 1 0 0 1 0 0 0 1 0 0 1 0 0 1 0 0 1 0 0 1 0 0 1 1 0 -2.64112e-08 1 0 -2.64112e-08 -1 0 0 -1 0 0 -1 0 0 -1 0 0 1 0 -2.64112e-08 1 0 -2.64112e-08 0 0 1 0 0 1 0 0.99863 0.0523359 0 0.99863 0.0523359 0.999048 0 0.0436194 0.999048 0 0.0436194 0 1 0 0 1 0 0 1 0 0 1 0 0 1 0 0 1 0 0 1 0 -0.999048 0 0.0436194 -0.999048 0 0.0436194 0 0 1 0 0 1 0 0 1 0 0 1 0 0 1 0 0 1 1 0 0 1 0 0 1 0 0 1 0 0 1 0 0 1 0 0 1 0 0 1 0 0 1 0 0 1 0 0 1 0 0 1 0 0 1 0 0 1 0 0 1 0 0 1 0 0 1 0 0 1 0 0 1 0 0 1 0 0 1 0 0 1 0 0 1 0 0 -1 0 0 -1 0 0 -1 0 0 -1 0 0 -1 0 0 -1 0 0 -1 0 0 0 0.995185 0.0980171 0 0.995185 0.0980171 0 0.95694 0.290285 0 0.95694 0.290285 0 0.881921 0.471397 0 0.881921 0.471397 0 0.773012 0.634391 0 0.773012 0.634391 -1 0 0 -1 0 0 -1 0 0 -1 0 0 -1 0 0 -1 0 0 -1 0 0 -1 0 0 -1 0 0 -1 0 0 -1 0 0 -1 0 0 -1 0 0 -1 0 0 -1 0 0 0 0.634391 0.773012 0 0.634391 0.773012 0 0.471396 0.881922 0 0.471396 0.881922 0 0.290284 0.956941 0 0.290284 0.956941 0 0.0980194 0.995185 0 0.0980194 0.995185 0 -0.0980196 0.995184 0 -0.0980196 0.995184 0 -0.290283 0.956941 0 -0.290283 0.956941 0 -0.471396 0.881922 0 -0.471396 0.881922 0 -0.634391 0.773012 0 -0.634391 0.773012 0 -0.773013 0.63439 0 -0.773013 0.63439 0 -0.88192 0.471398 0 -0.88192 0.471398 0 -0.956941 0.290284 0 -0.956941 0.290284 0 -0.995185 0.0980171 0 -0.995185 0.0980171 0 -1 0 0 -1 0 0 -1 0 0 -1 0 0 -1 0 0 -1 0 0 -1 0 0 -1 0 1 0 0 0 0 1 0 0 1 0 0 1 0 0 1 0 0 1 0 0 1 0 1 0 0 1 0 0 0 -1 0 0 -1 0 0 -1 0 0 -1 0 0 -1 0 0 -1 0 -1 0 0 -1 0 -1 0 0 0.999048 0 0.0436194 0.999048 0 0.0436194 0 0 1 0 0 1 0 -0.99863 0.0523359 0 -0.99863 0.0523359 -0.999048 0 0.0436194 -0.999048 0 0.0436194 -1 0 0 -1 0 0 0 1 0 0 1 0 1 0 0 1 0 0 0 -1 0 0 -1 0 0 0 -1 0 0 -1 0 0 1 0 0 1 -1 0 0 -1 0 0 0 1 0 0 1 0 1 0 0 1 0 0 0 -1 0 0 -1 0 0 0 -1 0 0 -1 0 0 1 0 0 1 -1 0 0 -1 0 0 0 1 0 0 1 0 1 0 0 1 0 0 0 -1 0 0 -1 0 0 0 -1 0 0 -1 0 0 1 0 0 1 -1 0 0 -1 0 0 0 1 0 0 1 0 1 0 0 1 0 0 0 -1 0 0 -1 0 0 0 -1 0 0 -1 0 0 -1 0 0 -1 0 0 -1 0 0 -1 0 0 -1 0 0 -1 0 0 -1 0 0 -1 0 0 -1 0 0 -1 0 0 -1 0 0 -1 0 0 -1 0 0 -1 0 0 -1 0 0 -1 0 0 -1 0 0 -1 0 0 -1 0 0 -1 0 0 -1 0 0 -1 0 0 -1 0 0 -1 0 0 -1 0 0 -1 0 0 -1 0 0 -1 0 0 -1 0 0 -1 0 0 -1 0 0 -1 0 0 -1 0 0 -1 0 0 -1 0 0 -1 0 0 -1 0 0 -1 0 0 -1 0 0 -1 0 0 -1 0 0 -1 0 0 -1 0 0 -1 0 0 -1 0 0 -1 0 0 -1 0 0 -1 0 0 -1 0 0 -1 0 0 -1 0 0 -1 0 0 -1 0 0 -1 0 0 -1 0 0 -1 0 0 -1 0 0 -1 0 0 -1 0 0 -1 0 0 -1 0 0 -1 0 0 -1 0 0 -1 0 0 -1 0 0 -1 0 0 -1 0 0 -1 0 0 1 0 0 1 0 0 1 0 0 1 0 0 1 0 0 1 0 0 1 0 0 1 0 0 1 0 0 1 0 0 1 0 0 1 0 0 1 0 0 1 0 0 1 0 0 1 0 0 1 0 0 1 0 0 1 0 0 1 0 0 1 0 0 1 0 0 1 0 0 1 0 0 1 0 0 1 0 0 1 0 0 1 0 0 1 0 0 1 0 0 1 0 0 1 0 0 1 0 0 1 0 0 1 0 0 1 0 0 1 0 0 1 0 0 1 0 0 1 0 0 1 0 0 1 0 0 1 0 0 1 0 0 1 0 0 1 0 0 1 0 0 1 0 0 1 0 0 1 0 0 1 0 0 1 0 0 1 0 0 1 0 0 1 0 0 1 0 0 1 0 0 1 0 0 1 0 0 1 0 0 1 0 0 1 0 0 1 0 0 1 0 0 1 0 0 1 0 0 1 0 0 1 0 0 1 0 0 1 -0.098035 -0.995183 0 -0.098035 -0.995183 0 -0.290283 -0.956941 0 -0.290283 -0.956941 0 -0.471408 -0.881915 0 -0.471408 -0.881915 0 -0.634361 -0.773037 0 -0.634361 -0.773037 0 -0.773019 -0.634383 0 -0.773019 -0.634383 0 -0.881922 -0.471396 0 -0.881922 -0.471396 0 -0.95694 -0.290285 0 -0.95694 -0.290285 0 -0.995185 -0.0980147 0 -0.995185 -0.0980147 0 -0.995185 0.0980189 0 -0.995185 0.0980189 0 -0.95694 0.290285 0 -0.95694 0.290285 0 -0.881922 0.471396 0 -0.881922 0.471396 0 -0.773001 0.634405 0 -0.773001 0.634405 0 -0.634387 0.773015 0 -0.634387 0.773015 0 -0.471408 0.881915 0 -0.471408 0.881915 0 -0.290283 0.956941 0 -0.290283 0.956941 0 -0.098035 0.995183 0 -0.098035 0.995183 0 0.0980348 0.995183 0 0.0980348 0.995183 0 0.290283 0.956941 0 0.290283 0.956941 0 0.471408 0.881916 0 0.471408 0.881916 0 0.634388 0.773015 0 0.634388 0.773015 0 0.773001 0.634405 0 0.773001 0.634405 0 0.881923 0.471394 0 0.881923 0.471394 0 0.95694 0.290286 0 0.95694 0.290286 0 0.995185 0.0980196 0 0.995185 0.0980196 0 0.995185 -0.0980154 0 0.995185 -0.0980154 0 0.95694 -0.290286 0 0.95694 -0.290286 0 0.881923 -0.471394 0 0.881923 -0.471394 0 0.773018 -0.634384 0 0.773018 -0.634384 0 0.634362 -0.773036 0 0.634362 -0.773036 0 0.471408 -0.881916 0 0.471408 -0.881916 0 0.290283 -0.956941 0 0.290283 -0.956941 0 0.0980348 -0.995183 0 0.0980348 -0.995183 0 -0.098035 -0.995183 0 -0.098035 -0.995183 0 -0.290283 -0.956941 0 -0.290283 -0.956941 0 -0.471408 -0.881915 0 -0.471408 -0.881915 0 -0.634387 -0.773015 0 -0.634387 -0.773015 0 -0.773001 -0.634405 0 -0.773001 -0.634405 0 -0.881922 -0.471396 0 -0.881922 -0.471396 0 -0.95694 -0.290285 0 -0.95694 -0.290285 0 -0.995185 -0.0980147 0 -0.995185 -0.0980147 0 -0.995185 0.0980189 0 -0.995185 0.0980189 0 -0.95694 0.290285 0 -0.95694 0.290285 0 -0.881922 0.471396 0 -0.881922 0.471396 0 -0.773019 0.634383 0 -0.773019 0.634383 0 -0.634387 0.773015 0 -0.634387 0.773015 0 -0.471374 0.881933 0 -0.471374 0.881933 0 -0.290283 0.956941 0 -0.290283 0.956941 0 -0.098035 0.995183 0 -0.098035 0.995183 0 0.0980348 0.995183 0 0.0980348 0.995183 0 0.290283 0.956941 0 0.290283 0.956941 0 0.471374 0.881934 0 0.471374 0.881934 0 0.634388 0.773015 0 0.634388 0.773015 0 0.773018 0.634384 0 0.773018 0.634384 0 0.881923 0.471394 0 0.881923 0.471394 0 0.95694 0.290286 0 0.95694 0.290286 0 0.995185 0.0980196 0 0.995185 0.0980196 0 0.995185 -0.0980154 0 0.995185 -0.0980154 0 0.95694 -0.290286 0 0.95694 -0.290286 0 0.881923 -0.471394 0 0.881923 -0.471394 0 0.773001 -0.634405 0 0.773001 -0.634405 0 0.634388 -0.773015 0 0.634388 -0.773015 0 0.471408 -0.881916 0 0.471408 -0.881916 0 0.290283 -0.956941 0 0.290283 -0.956941 0 0.0980348 -0.995183 0 0.0980348 -0.995183 0 0 -1 0 0 -1 0 -1 0 0 -1 0 0 -1 0 0 0 0 -1 0 0 -1 1 0 0 1 0 0 1 0 0 0 1 0 0 1 0 0 -1 0 0 -1 0 0 1 0 0 1 0 0 0 1 0 0 1 0 0 1 0 0 1 0 0 1 0 0 1 1 0 -2.64112e-08 1 0 -2.64112e-08 -1 0 0 -1 0 0 -1 0 0 -1 0 0 1 0 -2.64112e-08 1 0 -2.64112e-08 0 0 1 0 0 1 0 0.99863 0.0523362 0 0.99863 0.0523362 0.999048 0 0.0436194 0.999048 0 0.0436194 0 1 0 0 1 0 0 1 0 0 1 0 0 1 0 0 1 0 0 1 0 -0.999048 0 0.0436194 -0.999048 0 0.0436194 0 0 1 0 0 1 0 0 1 0 0 1 0 0 1 0 0 1 1 0 0 1 0 0 1 0 0 1 0 0 1 0 0 1 0 0 1 0 0 1 0 0 1 0 0 1 0 0 1 0 0 1 0 0 1 0 0 1 0 0 1 0 0 1 0 0 1 0 0 1 0 0 1 0 0 1 0 0 1 0 0 1 0 0 1 0 0 -1 0 0 -1 0 0 -1 0 0 -1 0 0 -1 0 0 -1 0 0 -1 0 0 0 0.995184 0.09802 0 0.995184 0.09802 0 0.956942 0.290278 0 0.956942 0.290278 0 0.881919 0.471402 0 0.881919 0.471402 0 0.773014 0.634389 0 0.773014 0.634389 -1 0 0 -1 0 0 -1 0 0 -1 0 0 -1 0 0 -1 0 0 -1 0 0 -1 0 0 -1 0 0 -1 0 0 -1 0 0 -1 0 0 -1 0 0 -1 0 0 -1 0 0 0 0.634392 0.773012 0 0.634392 0.773012 0 0.471393 0.881923 0 0.471393 0.881923 0 0.290284 0.95694 0 0.290284 0.95694 0 0.0980194 0.995185 0 0.0980194 0.995185 0 -0.09802 0.995184 0 -0.09802 0.995184 0 -0.290284 0.95694 0 -0.290284 0.95694 0 -0.471393 0.881923 0 -0.471393 0.881923 0 -0.634395 0.773009 0 -0.634395 0.773009 0 -0.773011 0.634393 0 -0.773011 0.634393 0 -0.881919 0.471402 0 -0.881919 0.471402 0 -0.956942 0.290278 0 -0.956942 0.290278 0 -0.995184 0.09802 0 -0.995184 0.09802 0 -1 0 0 -1 0 0 -1 0 0 -1 0 0 -1 0 0 -1 0 0 -1 0 0 -1 0 1 0 0 0 0 1 0 0 1 0 0 1 0 0 1 0 0 1 0 0 1 0 1 0 0 1 0 0 0 -1 0 0 -1 0 0 -1 0 0 -1 0 0 -1 0 0 -1 0 -1 0 0 -1 0 -1 0 0 0.999048 0 0.0436194 0.999048 0 0.0436194 0 0 1 0 0 1 0 -0.99863 0.0523362 0 -0.99863 0.0523362 -0.999048 0 0.0436194 -0.999048 0 0.0436194</float_array>
                    <technique_common>
                        <accessor count="912" source="#shape0-lib-normals-array" stride="3">
                            <param name="X" type="float"/>
                            <param name="Y" type="float"/>
                            <param name="Z" type="float"/>
                        </accessor>
                    </technique_common>
                </source>
                <vertices id="shape0-lib-vertices">
                    <input semantic="POSITION" source="#shape0-lib-positions"/>
                </vertices>
                <triangles count="912">
                    <input offset="0" semantic="VERTEX" source="#shape0-lib-vertices"/>
                    <input offset="1" semantic="NORMAL" source="#shape0-lib-normals"/>
                    <p>0 0 1 0 2 0 0 1 2 1 3 1 3 2 2 2 4 2 3 3 4 3 5 3 5 4 4 4 6 4 5 5 6 5 7 5 7 6 6 6 1 6 7 7 1 7 0 7 8 8 9 8 3 8 5 9 10 9 11 9 5 10 11 10 12 10 13 11 8 11 3 11 14 12 13 12 3 12 5 13 12 13 15 13 5 14 15 14 16 14 17 15 14 15 3 15 18 16 17 16 3 16 5 17 16 17 19 17 5 18 19 18 20 18 18 19 3 19 5 19 21 20 18 20 5 20 5 21 20 21 22 21 5 22 22 22 23 22 24 23 21 23 5 23 5 24 23 24 24 24 25 25 26 25 0 25 0 26 3 26 9 26 0 27 9 27 27 27 28 28 25 28 0 28 29 29 28 29 0 29 0 30 27 30 30 30 0 31 30 31 31 31 29 32 0 32 31 32 29 33 31 33 32 33 33 34 29 34 32 34 33 35 32 35 34 35 35 36 33 36 34 36 35 37 34 37 36 37 37 38 35 38 36 38 37 39 36 39 38 39 39 40 37 40 38 40 39 41 38 41 40 41 41 42 39 42 40 42 41 43 40 43 42 43 43 44 41 44 42 44 43 45 42 45 44 45 45 46 43 46 44 46 45 47 44 47 46 47 47 48 45 48 46 48 47 49 46 49 48 49 49 50 47 50 48 50 49 51 48 51 50 51 51 52 49 52 50 52 51 53 50 53 52 53 53 54 51 54 52 54 54 55 10 55 5 55 53 56 52 56 54 56 7 57 55 57 56 57 56 58 53 58 54 58 54 59 5 59 7 59 54 60 7 60 56 60 57 61 55 61 7 61 0 62 26 62 58 62 0 63 58 63 59 63 60 64 57 64 7 64 61 65 60 65 7 65 0 66 59 66 62 66 0 67 62 67 63 67 64 68 61 68 7 68 65 69 64 69 7 69 0 70 63 70 66 70 0 71 66 71 67 71 65 72 7 72 0 72 68 73 65 73 0 73 0 74 67 74 69 74 0 75 69 75 70 75 71 76 68 76 0 76 0 77 70 77 71 77 72 78 73 78 1 78 6 79 74 79 75 79 6 80 75 80 76 80 77 81 72 81 1 81 78 82 77 82 1 82 6 83 76 83 79 83 6 84 79 84 80 84 81 85 78 85 1 85 82 86 81 86 1 86 6 87 80 87 83 87 6 88 83 88 84 88 82 89 1 89 6 89 85 90 82 90 6 90 6 91 84 91 86 91 6 92 86 92 87 92 88 93 85 93 6 93 6 94 87 94 88 94 89 95 90 95 2 95 2 96 1 96 73 96 2 97 73 97 91 97 92 98 89 98 2 98 93 99 92 99 2 99 2 100 91 100 94 100 2 101 94 101 95 101 93 102 2 102 95 102 93 103 95 103 96 103 97 104 93 104 96 104 97 105 96 105 98 105 99 106 97 106 98 106 99 107 98 107 100 107 101 108 99 108 100 108 101 109 100 109 102 109 103 110 101 110 102 110 103 111 102 111 104 111 105 112 103 112 104 112 105 113 104 113 106 113 107 114 105 114 106 114 107 115 106 115 108 115 109 116 107 116 108 116 109 117 108 117 110 117 111 118 109 118 110 118 111 119 110 119 112 119 113 120 111 120 112 120 113 121 112 121 114 121 115 122 113 122 114 122 115 123 114 123 116 123 117 124 115 124 116 124 118 125 74 125 6 125 117 126 116 126 118 126 4 127 119 127 120 127 120 128 117 128 118 128 118 129 6 129 4 129 118 130 4 130 120 130 121 131 119 131 4 131 2 132 90 132 122 132 2 133 122 133 123 133 124 134 121 134 4 134 125 135 124 135 4 135 2 136 123 136 126 136 2 137 126 137 127 137 128 138 125 138 4 138 129 139 128 139 4 139 2 140 127 140 130 140 2 141 130 141 131 141 129 142 4 142 2 142 132 143 129 143 2 143 2 144 131 144 133 144 2 145 133 145 134 145 135 146 132 146 2 146 2 147 134 147 135 147 134 148 23 148 22 148 134 149 22 149 135 149 135 150 22 150 20 150 135 151 20 151 132 151 132 152 20 152 19 152 132 153 19 153 129 153 129 154 19 154 16 154 129 155 16 155 128 155 128 156 16 156 15 156 128 157 15 157 125 157 125 158 15 158 12 158 125 159 12 159 124 159 124 160 12 160 11 160 124 161 11 161 121 161 11 162 10 162 119 162 11 163 119 163 121 163 10 164 54 164 120 164 10 165 120 165 119 165 54 166 52 166 117 166 54 167 117 167 120 167 52 168 50 168 115 168 52 169 115 169 117 169 50 170 48 170 113 170 50 171 113 171 115 171 48 172 46 172 111 172 48 173 111 173 113 173 46 174 44 174 109 174 46 175 109 175 111 175 44 176 42 176 107 176 44 177 107 177 109 177 42 178 40 178 105 178 42 179 105 179 107 179 40 180 38 180 103 180 40 181 103 181 105 181 38 182 36 182 101 182 38 183 101 183 103 183 36 184 34 184 99 184 36 185 99 185 101 185 34 186 32 186 97 186 34 187 97 187 99 187 32 188 31 188 93 188 32 189 93 189 97 189 31 190 30 190 92 190 31 191 92 191 93 191 30 192 27 192 89 192 30 193 89 193 92 193 89 194 27 194 9 194 89 195 9 195 90 195 90 196 9 196 8 196 90 197 8 197 122 197 122 198 8 198 13 198 122 199 13 199 123 199 123 200 13 200 14 200 123 201 14 201 126 201 126 202 14 202 17 202 126 203 17 203 127 203 127 204 17 204 18 204 127 205 18 205 130 205 130 206 18 206 21 206 130 207 21 207 131 207 131 208 21 208 24 208 131 209 24 209 133 209 133 210 24 210 23 210 133 211 23 211 134 211 104 212 41 212 43 212 104 213 43 213 106 213 106 214 43 214 45 214 106 215 45 215 108 215 108 216 45 216 47 216 108 217 47 217 110 217 110 218 47 218 49 218 110 219 49 219 112 219 112 220 49 220 51 220 112 221 51 221 114 221 114 222 51 222 53 222 114 223 53 223 116 223 116 224 53 224 56 224 116 225 56 225 118 225 56 226 55 226 74 226 56 227 74 227 118 227 55 228 57 228 75 228 55 229 75 229 74 229 57 230 60 230 76 230 57 231 76 231 75 231 60 232 61 232 79 232 60 233 79 233 76 233 61 234 64 234 80 234 61 235 80 235 79 235 64 236 65 236 83 236 64 237 83 237 80 237 65 238 68 238 84 238 65 239 84 239 83 239 68 240 71 240 86 240 68 241 86 241 84 241 71 242 70 242 87 242 71 243 87 243 86 243 70 244 69 244 88 244 70 245 88 245 87 245 69 246 67 246 85 246 69 247 85 247 88 247 67 248 66 248 82 248 67 249 82 249 85 249 66 250 63 250 81 250 66 251 81 251 82 251 63 252 62 252 78 252 63 253 78 253 81 253 62 254 59 254 77 254 62 255 77 255 78 255 59 256 58 256 72 256 59 257 72 257 77 257 72 258 58 258 26 258 72 259 26 259 73 259 73 260 26 260 25 260 73 261 25 261 91 261 91 262 25 262 28 262 91 263 28 263 94 263 94 264 28 264 29 264 94 265 29 265 95 265 95 266 29 266 33 266 95 267 33 267 96 267 96 268 33 268 35 268 96 269 35 269 98 269 98 270 35 270 37 270 98 271 37 271 100 271 100 272 37 272 39 272 100 273 39 273 102 273 102 274 39 274 41 274 102 275 41 275 104 275 136 276 137 276 138 276 136 277 138 277 139 277 136 278 140 278 137 278 141 279 137 279 140 279 141 280 140 280 142 280 141 281 143 281 138 281 141 282 138 282 137 282 144 283 139 283 138 283 138 284 143 284 145 284 138 285 145 285 144 285 143 286 141 286 142 286 143 287 142 287 145 287 136 288 139 288 146 288 136 289 146 289 147 289 145 290 142 290 148 290 145 291 148 291 149 291 150 292 149 292 148 292 151 293 147 293 146 293 150 294 148 294 151 294 146 295 152 295 150 295 151 296 146 296 150 296 152 297 149 297 150 297 144 298 145 298 149 298 144 299 149 299 152 299 140 300 136 300 147 300 140 301 147 301 151 301 142 302 140 302 151 302 142 303 151 303 148 303 139 304 144 304 152 304 139 305 152 305 146 305 153 306 154 306 155 306 153 307 155 307 156 307 155 308 154 308 157 308 155 309 157 309 158 309 159 310 157 310 154 310 159 311 154 311 153 311 160 312 161 312 159 312 160 313 159 313 153 313 162 314 163 314 164 314 160 315 153 315 156 315 156 316 162 316 164 316 165 317 160 317 156 317 164 318 165 318 156 318 155 319 158 319 162 319 155 320 162 320 156 320 157 321 159 321 161 321 166 322 163 322 162 322 166 323 162 323 158 323 157 324 161 324 167 324 166 325 158 325 157 325 157 326 167 326 166 326 166 327 164 327 163 327 164 328 166 328 168 328 169 329 170 329 171 329 165 330 164 330 168 330 169 331 171 331 172 331 169 332 172 332 173 332 174 333 165 333 168 333 175 334 174 334 168 334 169 335 173 335 176 335 177 336 175 336 168 336 178 337 177 337 168 337 169 338 176 338 179 338 169 339 179 339 180 339 181 340 178 340 168 340 182 341 181 341 168 341 169 342 180 342 183 342 169 343 183 343 184 343 185 344 182 344 168 344 186 345 185 345 168 345 169 346 184 346 187 346 188 347 186 347 168 347 169 348 187 348 188 348 188 349 168 349 169 349 189 350 167 350 161 350 189 351 161 351 160 351 190 352 191 352 189 352 192 353 190 353 189 353 189 354 160 354 193 354 194 355 192 355 189 355 193 356 194 356 189 356 160 357 165 357 174 357 160 358 174 358 193 358 193 359 174 359 175 359 193 360 175 360 194 360 194 361 175 361 177 361 194 362 177 362 192 362 192 363 177 363 178 363 192 364 178 364 190 364 191 365 190 365 195 365 191 366 195 366 196 366 197 367 198 367 199 367 200 368 197 368 199 368 191 369 196 369 201 369 191 370 201 370 202 370 203 371 200 371 199 371 199 372 191 372 202 372 199 373 202 373 204 373 205 374 203 374 199 374 206 375 205 375 199 375 199 376 204 376 207 376 199 377 207 377 208 377 209 378 206 378 199 378 208 379 209 379 199 379 195 380 190 380 178 380 195 381 178 381 181 381 196 382 195 382 181 382 196 383 181 383 182 383 201 384 196 384 182 384 201 385 182 385 185 385 202 386 201 386 185 386 202 387 185 387 186 387 204 388 202 388 186 388 204 389 186 389 188 389 207 390 204 390 188 390 207 391 188 391 187 391 208 392 207 392 187 392 208 393 187 393 184 393 209 394 208 394 184 394 209 395 184 395 183 395 206 396 209 396 183 396 206 397 183 397 180 397 205 398 206 398 180 398 205 399 180 399 179 399 203 400 205 400 179 400 203 401 179 401 176 401 200 402 203 402 176 402 200 403 176 403 173 403 210 404 211 404 212 404 210 405 212 405 197 405 213 406 214 406 215 406 210 407 197 407 200 407 172 408 213 408 215 408 215 409 210 409 200 409 173 410 172 410 215 410 200 411 173 411 215 411 172 412 171 412 213 412 216 413 214 413 213 413 198 414 212 414 211 414 198 415 211 415 217 415 216 416 213 416 171 416 198 417 217 417 216 417 216 418 171 418 198 418 199 419 198 419 171 419 199 420 171 420 170 420 169 421 168 421 189 421 169 422 189 422 191 422 199 423 170 423 218 423 218 424 169 424 191 424 191 425 199 425 218 425 170 426 169 426 218 426 168 427 166 427 167 427 168 428 167 428 189 428 198 429 197 429 212 429 210 430 219 430 217 430 210 431 217 431 211 431 215 432 220 432 219 432 215 433 219 433 210 433 217 434 219 434 220 434 217 435 220 435 216 435 214 436 216 436 220 436 214 437 220 437 215 437 221 438 222 438 223 438 221 439 223 439 224 439 224 440 223 440 225 440 224 441 225 441 226 441 226 442 225 442 227 442 226 443 227 443 228 443 228 444 227 444 222 444 228 445 222 445 221 445 224 446 226 446 228 446 224 447 228 447 221 447 225 448 223 448 222 448 225 449 222 449 227 449 229 450 230 450 231 450 229 451 231 451 232 451 232 452 231 452 233 452 232 453 233 453 234 453 234 454 233 454 235 454 234 455 235 455 236 455 236 456 235 456 230 456 236 457 230 457 229 457 232 458 234 458 236 458 232 459 236 459 229 459 233 460 231 460 230 460 233 461 230 461 235 461 237 462 238 462 239 462 237 463 239 463 240 463 240 464 239 464 241 464 240 465 241 465 242 465 242 466 241 466 243 466 242 467 243 467 244 467 244 468 243 468 238 468 244 469 238 469 237 469 240 470 242 470 244 470 240 471 244 471 237 471 241 472 239 472 238 472 241 473 238 473 243 473 245 474 246 474 247 474 245 475 247 475 248 475 248 476 247 476 249 476 248 477 249 477 250 477 250 478 249 478 251 478 250 479 251 479 252 479 252 480 251 480 246 480 252 481 246 481 245 481 253 482 254 482 248 482 250 483 255 483 256 483 250 484 256 484 257 484 258 485 253 485 248 485 259 486 258 486 248 486 250 487 257 487 260 487 250 488 260 488 261 488 262 489 259 489 248 489 263 490 262 490 248 490 250 491 261 491 264 491 250 492 264 492 265 492 263 493 248 493 250 493 266 494 263 494 250 494 250 495 265 495 267 495 250 496 267 496 268 496 269 497 266 497 250 497 250 498 268 498 269 498 270 499 271 499 245 499 245 500 248 500 254 500 245 501 254 501 272 501 273 502 270 502 245 502 274 503 273 503 245 503 245 504 272 504 275 504 245 505 275 505 276 505 274 506 245 506 276 506 274 507 276 507 277 507 278 508 274 508 277 508 278 509 277 509 279 509 280 510 278 510 279 510 280 511 279 511 281 511 282 512 280 512 281 512 282 513 281 513 283 513 284 514 282 514 283 514 284 515 283 515 285 515 286 516 284 516 285 516 286 517 285 517 287 517 288 518 286 518 287 518 288 519 287 519 289 519 290 520 288 520 289 520 290 521 289 521 291 521 292 522 290 522 291 522 292 523 291 523 293 523 294 524 292 524 293 524 294 525 293 525 295 525 296 526 294 526 295 526 296 527 295 527 297 527 298 528 296 528 297 528 299 529 255 529 250 529 298 530 297 530 299 530 252 531 300 531 301 531 301 532 298 532 299 532 299 533 250 533 252 533 299 534 252 534 301 534 302 535 300 535 252 535 245 536 271 536 303 536 245 537 303 537 304 537 305 538 302 538 252 538 306 539 305 539 252 539 245 540 304 540 307 540 245 541 307 541 308 541 309 542 306 542 252 542 310 543 309 543 252 543 245 544 308 544 311 544 245 545 311 545 312 545 310 546 252 546 245 546 313 547 310 547 245 547 245 548 312 548 314 548 245 549 314 549 315 549 316 550 313 550 245 550 245 551 315 551 316 551 317 552 318 552 246 552 251 553 319 553 320 553 251 554 320 554 321 554 322 555 317 555 246 555 323 556 322 556 246 556 251 557 321 557 324 557 251 558 324 558 325 558 326 559 323 559 246 559 327 560 326 560 246 560 251 561 325 561 328 561 251 562 328 562 329 562 327 563 246 563 251 563 330 564 327 564 251 564 251 565 329 565 331 565 251 566 331 566 332 566 333 567 330 567 251 567 251 568 332 568 333 568 334 569 335 569 247 569 247 570 246 570 318 570 247 571 318 571 336 571 337 572 334 572 247 572 338 573 337 573 247 573 247 574 336 574 339 574 247 575 339 575 340 575 338 576 247 576 340 576 338 577 340 577 341 577 342 578 338 578 341 578 342 579 341 579 343 579 344 580 342 580 343 580 344 581 343 581 345 581 346 582 344 582 345 582 346 583 345 583 347 583 348 584 346 584 347 584 348 585 347 585 349 585 350 586 348 586 349 586 350 587 349 587 351 587 352 588 350 588 351 588 352 589 351 589 353 589 354 590 352 590 353 590 354 591 353 591 355 591 356 592 354 592 355 592 356 593 355 593 357 593 358 594 356 594 357 594 358 595 357 595 359 595 360 596 358 596 359 596 360 597 359 597 361 597 362 598 360 598 361 598 363 599 319 599 251 599 362 600 361 600 363 600 249 601 364 601 365 601 365 602 362 602 363 602 363 603 251 603 249 603 363 604 249 604 365 604 366 605 364 605 249 605 247 606 335 606 367 606 247 607 367 607 368 607 369 608 366 608 249 608 370 609 369 609 249 609 247 610 368 610 371 610 247 611 371 611 372 611 373 612 370 612 249 612 374 613 373 613 249 613 247 614 372 614 375 614 247 615 375 615 376 615 374 616 249 616 247 616 377 617 374 617 247 617 247 618 376 618 378 618 247 619 378 619 379 619 380 620 377 620 247 620 247 621 379 621 380 621 379 622 268 622 267 622 379 623 267 623 380 623 380 624 267 624 265 624 380 625 265 625 377 625 377 626 265 626 264 626 377 627 264 627 374 627 374 628 264 628 261 628 374 629 261 629 373 629 373 630 261 630 260 630 373 631 260 631 370 631 370 632 260 632 257 632 370 633 257 633 369 633 369 634 257 634 256 634 369 635 256 635 366 635 256 636 255 636 364 636 256 637 364 637 366 637 255 638 299 638 365 638 255 639 365 639 364 639 299 640 297 640 362 640 299 641 362 641 365 641 297 642 295 642 360 642 297 643 360 643 362 643 295 644 293 644 358 644 295 645 358 645 360 645 293 646 291 646 356 646 293 647 356 647 358 647 291 648 289 648 354 648 291 649 354 649 356 649 289 650 287 650 352 650 289 651 352 651 354 651 287 652 285 652 350 652 287 653 350 653 352 653 285 654 283 654 348 654 285 655 348 655 350 655 283 656 281 656 346 656 283 657 346 657 348 657 281 658 279 658 344 658 281 659 344 659 346 659 279 660 277 660 342 660 279 661 342 661 344 661 277 662 276 662 338 662 277 663 338 663 342 663 276 664 275 664 337 664 276 665 337 665 338 665 275 666 272 666 334 666 275 667 334 667 337 667 334 668 272 668 254 668 334 669 254 669 335 669 335 670 254 670 253 670 335 671 253 671 367 671 367 672 253 672 258 672 367 673 258 673 368 673 368 674 258 674 259 674 368 675 259 675 371 675 371 676 259 676 262 676 371 677 262 677 372 677 372 678 262 678 263 678 372 679 263 679 375 679 375 680 263 680 266 680 375 681 266 681 376 681 376 682 266 682 269 682 376 683 269 683 378 683 378 684 269 684 268 684 378 685 268 685 379 685 349 686 286 686 288 686 349 687 288 687 351 687 351 688 288 688 290 688 351 689 290 689 353 689 353 690 290 690 292 690 353 691 292 691 355 691 355 692 292 692 294 692 355 693 294 693 357 693 357 694 294 694 296 694 357 695 296 695 359 695 359 696 296 696 298 696 359 697 298 697 361 697 361 698 298 698 301 698 361 699 301 699 363 699 301 700 300 700 319 700 301 701 319 701 363 701 300 702 302 702 320 702 300 703 320 703 319 703 302 704 305 704 321 704 302 705 321 705 320 705 305 706 306 706 324 706 305 707 324 707 321 707 306 708 309 708 325 708 306 709 325 709 324 709 309 710 310 710 328 710 309 711 328 711 325 711 310 712 313 712 329 712 310 713 329 713 328 713 313 714 316 714 331 714 313 715 331 715 329 715 316 716 315 716 332 716 316 717 332 717 331 717 315 718 314 718 333 718 315 719 333 719 332 719 314 720 312 720 330 720 314 721 330 721 333 721 312 722 311 722 327 722 312 723 327 723 330 723 311 724 308 724 326 724 311 725 326 725 327 725 308 726 307 726 323 726 308 727 323 727 326 727 307 728 304 728 322 728 307 729 322 729 323 729 304 730 303 730 317 730 304 731 317 731 322 731 317 732 303 732 271 732 317 733 271 733 318 733 318 734 271 734 270 734 318 735 270 735 336 735 336 736 270 736 273 736 336 737 273 737 339 737 339 738 273 738 274 738 339 739 274 739 340 739 340 740 274 740 278 740 340 741 278 741 341 741 341 742 278 742 280 742 341 743 280 743 343 743 343 744 280 744 282 744 343 745 282 745 345 745 345 746 282 746 284 746 345 747 284 747 347 747 347 748 284 748 286 748 347 749 286 749 349 749 381 750 382 750 383 750 381 751 383 751 384 751 381 752 385 752 382 752 386 753 382 753 385 753 386 754 385 754 387 754 386 755 388 755 383 755 386 756 383 756 382 756 389 757 384 757 383 757 383 758 388 758 390 758 383 759 390 759 389 759 388 760 386 760 387 760 388 761 387 761 390 761 381 762 384 762 391 762 381 763 391 763 392 763 390 764 387 764 393 764 390 765 393 765 394 765 395 766 394 766 393 766 396 767 392 767 391 767 395 768 393 768 396 768 391 769 397 769 395 769 396 770 391 770 395 770 397 771 394 771 395 771 389 772 390 772 394 772 389 773 394 773 397 773 385 774 381 774 392 774 385 775 392 775 396 775 387 776 385 776 396 776 387 777 396 777 393 777 384 778 389 778 397 778 384 779 397 779 391 779 398 780 399 780 400 780 398 781 400 781 401 781 400 782 399 782 402 782 400 783 402 783 403 783 404 784 402 784 399 784 404 785 399 785 398 785 405 786 406 786 404 786 405 787 404 787 398 787 407 788 408 788 409 788 405 789 398 789 401 789 401 790 407 790 409 790 410 791 405 791 401 791 409 792 410 792 401 792 400 793 403 793 407 793 400 794 407 794 401 794 402 795 404 795 406 795 411 796 408 796 407 796 411 797 407 797 403 797 402 798 406 798 412 798 411 799 403 799 402 799 402 800 412 800 411 800 411 801 409 801 408 801 410 802 409 802 411 802 413 803 414 803 415 803 413 804 415 804 416 804 410 805 411 805 417 805 418 806 410 806 417 806 419 807 418 807 417 807 420 808 419 808 417 808 421 809 420 809 417 809 422 810 421 810 417 810 423 811 422 811 417 811 424 812 423 812 417 812 425 813 424 813 417 813 426 814 425 814 417 814 426 815 417 815 413 815 427 816 426 816 413 816 428 817 427 817 413 817 429 818 428 818 413 818 430 819 429 819 413 819 431 820 430 820 413 820 432 821 431 821 413 821 433 822 432 822 413 822 433 823 413 823 416 823 434 824 412 824 406 824 435 825 434 825 406 825 436 826 437 826 435 826 438 827 436 827 435 827 439 828 438 828 435 828 405 829 439 829 435 829 435 830 406 830 405 830 405 831 410 831 418 831 405 832 418 832 439 832 439 833 418 833 419 833 439 834 419 834 438 834 438 835 419 835 420 835 438 836 420 836 436 836 436 837 420 837 421 837 436 838 421 838 437 838 435 839 437 839 440 839 435 840 440 840 441 840 442 841 443 841 444 841 435 842 441 842 445 842 435 843 445 843 446 843 435 844 446 844 447 844 444 845 435 845 447 845 444 846 447 846 448 846 444 847 448 847 449 847 444 848 449 848 450 848 444 849 450 849 451 849 444 850 451 850 452 850 444 851 452 851 453 851 444 852 453 852 454 852 454 853 442 853 444 853 440 854 437 854 421 854 440 855 421 855 422 855 441 856 440 856 422 856 441 857 422 857 423 857 445 858 441 858 423 858 445 859 423 859 424 859 446 860 445 860 424 860 446 861 424 861 425 861 447 862 446 862 425 862 447 863 425 863 426 863 448 864 447 864 426 864 448 865 426 865 427 865 449 866 448 866 427 866 449 867 427 867 428 867 450 868 449 868 428 868 450 869 428 869 429 869 451 870 450 870 429 870 451 871 429 871 430 871 452 872 451 872 430 872 452 873 430 873 431 873 453 874 452 874 431 874 453 875 431 875 432 875 454 876 453 876 432 876 454 877 432 877 433 877 455 878 456 878 457 878 455 879 457 879 442 879 458 880 459 880 460 880 455 881 442 881 454 881 416 882 458 882 460 882 460 883 455 883 454 883 433 884 416 884 460 884 454 885 433 885 460 885 416 886 415 886 458 886 461 887 459 887 458 887 443 888 457 888 456 888 443 889 456 889 462 889 461 890 458 890 415 890 443 891 462 891 461 891 461 892 415 892 443 892 444 893 443 893 415 893 444 894 415 894 414 894 413 895 417 895 434 895 413 896 434 896 435 896 444 897 414 897 463 897 463 898 413 898 435 898 435 899 444 899 463 899 414 900 413 900 463 900 417 901 411 901 412 901 417 902 412 902 434 902 443 903 442 903 457 903 455 904 464 904 462 904 455 905 462 905 456 905 460 906 465 906 464 906 460 907 464 907 455 907 462 908 464 908 465 908 462 909 465 909 461 909 459 910 461 910 465 910 459 911 465 911 460 911</p>
                </triangles>
            </mesh>
        </geometry>
    </library_geometries>
    <library_visual_scenes>
        <visual_scene id="VisualSceneNode" name="VisualScene">
            <node id="node" name="node">
                <instance_geometry url="#shape0-lib"/>
            </node>
        </visual_scene>
    </library_visual_scenes>
    <scene>
        <instance_visual_scene url="#VisualSceneNode"/>
    </scene>
</COLLADA>
